<?xml version="1.0" encoding="utf-8"?>
<!-- Generator: Adobe Illustrator 23.1.1, SVG Export Plug-In . SVG Version: 6.00 Build 0)  -->
<svg version="1.1" id="Layer_1" xmlns="http://www.w3.org/2000/svg" xmlns:xlink="http://www.w3.org/1999/xlink" x="0px" y="0px"
	 viewBox="0 0 512 512" style="enable-background:new 0 0 512 512;" xml:space="preserve">
<style type="text/css">
	.st0{fill:#736355;}
	.st1{fill:#BDC3C7;}
	.st2{fill:#6D6757;}
	.st3{fill:#D8D8D8;}
	.st4{fill:#805333;}
	.st5{fill:#65A593;}
</style>
<path id="Shape_1_" class="st0" d="M512,21.4v469.7c0,11.5-7.9,20.8-17.7,20.9l-203,0c23.9-1.5,22.2-41,0-41.8
	c-8.3-0.3,15.5-14.6,17-15.2c17.9-7.9,41.7-106.4,71.3-454.5C484.1,2.4,511.1-8.8,512,21.4z"/>
<path class="st1" d="M71.2,157C-82.1,118.4,48.3-66.2,154.6,35.7C147.5,28.9,66.2,124.6,71.2,157z"/>
<path class="st1" d="M379.6,79.4c9.9,42.5-25.9,69.5-62.3,77.6c5-32.8-31.7-97.4-83.4-121.4C289.6-20,363.1-9.7,379.6,79.4
	L379.6,79.4z"/>
<path class="st2" d="M76.7,122C-1,90.7,53.8-8,124.9,54.9"/>
<path class="st2" d="M263.4,54.9c102-67.5,122.5,40.5,48.2,67.1"/>
<path class="st1" d="M321.6,150.8C307.5,265,114.5,282,68.5,171.4C49.1,131,107,28.5,180.7,17.6C259.1,6.7,321.4,103.9,321.6,150.8z
	"/>
<path class="st3" d="M300.1,143.7c-6.4,44.5-47.5,83.6-99.4,86.8c-53.3,3.3-102.1-32.3-111.7-78.4C76.6,92.6,136.7,50.5,144,45.5
	c10.7-7.2,26.3-17.8,47.6-18.7C243.2,24.6,309.3,79.5,300.1,143.7z"/>
<path class="st1" d="M334.1,300.1c-39.4-1.7-91.7,12.3-84.4,19.1c37.2,34.7,11.9,79.3,2.4,103.6c-3.1,7.8,3.3,16,11.6,15
	c8.1-1,19-0.9,30.4,3.9c4.6,1.9,24.1,10.2,27.7,27.3c1.2,5.5,0.3,10.1-0.6,14.5c-2.1,10.7-7,18.8-11.1,24.2
	c-2.1,2.7-5.3,4.3-8.7,4.3c-19.7,0-91.4,0-125.4,0c-62,0-117.5-17.6-155.8-52.1c-58.6-52.8,44-242.2,84.1-256.7
	c21.8-7.9,33.7,23.1,69,32.3c24.6,6.4,56.9,0.5,70-1c0.9-0.1,1.7-0.1,2.6,0c16.1,1.9,76.5,9.1,88.7,10.5c1.5,0.2,1.6,0.3,2,0.4
	c19.8,3.3,30.3-11.3,42-11.3c17.2,0,39.1,31.8,31.8,48.8C401.6,303.1,352.3,300.9,334.1,300.1z"/>
<path class="st0" d="M229.5,167.7c-0.2,17.5-12.5,31.8-27.4,34.2c-18,3-37.3-11.7-38.7-33.2c-2.6-31.1,18.4-52.8,34.1-52.4
	C212.8,116.7,231.9,138.1,229.5,167.7z"/>
<path class="st0" d="M247.2,132.4c-1.7,0.5-3.3-0.5-4.6-1.3c-7.3-4.6-9.7-18.1-4-27.2c1.7-2.8,6.4-8.6,9.8-7.5
	C255.6,98.7,254.9,130.1,247.2,132.4z"/>
<path class="st0" d="M141.2,132.4c-1.7,0.5-3.3-0.5-4.6-1.3c-7.3-4.6-9.7-18.1-4-27.2c1.7-2.8,6.4-8.6,9.8-7.5
	C149.6,98.7,149,130.1,141.2,132.4z"/>
<path class="st4" d="M83.1,347.1"/>
<path class="st5" d="M75.1,248.5"/>
<path class="st0" d="M35.5,184.2"/>
<path id="Shape_2_" class="st0" d="M-54.8,21.4v469.7c0,11.5-7.9,20.8-17.7,20.9l-203,0c23.9-1.5,22.2-41,0-41.8
	c-8.3-0.3,15.5-14.6,17-15.2c17.9-7.9,41.7-106.4,71.3-454.5C-82.8,2.4-55.8-8.8-54.8,21.4z"/>
<path class="st1" d="M-495.7,157C-649,118.4-518.5-66.2-412.2,35.7C-419.4,28.9-500.7,124.6-495.7,157z"/>
<path class="st1" d="M-187.2,79.4c9.9,42.5-25.9,69.5-62.3,77.6c5-32.8-31.7-97.4-83.4-121.4C-277.2-20-203.8-9.7-187.2,79.4
	L-187.2,79.4z"/>
<path class="st2" d="M-490.1,122C-567.8,90.7-513-8-441.9,54.9"/>
<path class="st2" d="M-303.4,54.9c102-67.5,122.5,40.5,48.2,67.1"/>
<path class="st1" d="M-245.2,150.8C-259.3,265-452.3,282-498.3,171.4C-517.7,131-459.8,28.5-386.2,17.6
	C-307.7,6.7-245.4,103.9-245.2,150.8z"/>
<path class="st5" d="M-225.9,246.2c-28.2,79.8-21,110.5-7.1,122.9c8.2,7.4,26.4,15.1,62,42c3.9,2.9,7,5.4,9.2,7.1
	c4.8-11.5,10.8-28.6,14.4-49.9c4.5-26.2,8.5-49.9-0.9-71.6C-165.6,257.1-217.7,247.6-225.9,246.2z"/>
<path class="st3" d="M-266.7,143.7c-6.4,44.5-47.5,83.6-99.4,86.8c-53.3,3.3-102.1-32.3-111.7-78.4c-12.4-59.5,47.7-101.6,55-106.5
	c10.7-7.2,26.3-17.8,47.6-18.7C-323.6,24.6-257.5,79.5-266.7,143.7z"/>
<path class="st1" d="M-232.7,300.1c-39.4-1.7-91.7,12.3-84.4,19.1c37.2,34.7,11.9,79.3,2.4,103.6c-3.1,7.8,3.3,16,11.6,15
	c8.1-1,19-0.9,30.4,3.9c4.6,1.9,24.1,10.2,27.7,27.3c1.2,5.5,0.3,10.1-0.6,14.5c-2.1,10.7-7,18.8-11.1,24.2
	c-2.1,2.7-5.3,4.3-8.7,4.3c-19.7,0-91.4,0-125.4,0c-62,0-117.5-17.6-155.8-52.1c-58.6-52.8,44-242.2,84.1-256.7
	c21.8-7.9,33.7,23.1,69,32.3c24.6,6.4,56.9,0.5,70-1c0.9-0.1,1.7-0.1,2.6,0c16.1,1.9,76.5,9.1,88.7,10.5c1.5,0.2,1.6,0.3,2,0.4
	c19.8,3.3,30.3-11.3,42-11.3c17.2,0,39.1,31.8,31.8,48.8C-165.2,303.1-214.5,300.9-232.7,300.1z"/>
<path class="st0" d="M-337.3,167.7c-0.2,17.5-12.5,31.8-27.4,34.2c-18,3-37.3-11.7-38.7-33.2c-2.6-31.1,18.4-52.8,34.1-52.4
	C-354,116.7-334.9,138.1-337.3,167.7z"/>
<path class="st0" d="M-319.6,132.4c-1.7,0.5-3.3-0.5-4.6-1.3c-7.3-4.6-9.7-18.1-4-27.2c1.7-2.8,6.4-8.6,9.8-7.5
	C-311.2,98.7-311.9,130.1-319.6,132.4z"/>
<path class="st0" d="M-425.6,132.4c-1.7,0.5-3.3-0.5-4.6-1.3c-7.3-4.6-9.7-18.1-4-27.2c1.7-2.8,6.4-8.6,9.8-7.5
	C-417.2,98.7-417.9,130.1-425.6,132.4z"/>
<path class="st0" d="M-531.3,184.2"/>
<path class="st1" d="M-702.9,354"/>
<path class="st5" d="M192.9,207.9c-6.2,84.4,8.9,112.1,25.5,120.5c9.9,5,29.4,7.6,70.8,24.2c4.5,1.8,8.2,3.3,10.7,4.4
	c1.6-12.3,2.9-30.4,0.8-51.9c-2.6-26.5-4.9-50.4-19.7-68.8C253.9,202.6,201.1,207.1,192.9,207.9z"/>
</svg>
